<svg xmlns="http://www.w3.org/2000/svg" viewBox="0 0 367.05 358.62"><defs><style>.cls-1{fill:#808285;}.cls-2{fill:#106296;}.cls-3,.cls-4{fill:#fff;}.cls-3{stroke:#fff;stroke-miterlimit:10;}.cls-4{opacity:0.8;font-size:155.78px;font-family:GillSans, Gill Sans;}.cls-5{letter-spacing:-0.1em;}.cls-6{letter-spacing:0em;}</style></defs><g id="my_gear1"><path d="M174.84,512.23,143,480.34c6.77-11.66,20.33-35,20.33-35-9.42-10.63-10.73-15.14-10.73-15.14a91.08,91.08,0,0,1-4.43-21.44l-44-14.66,2.58-46.55,41.07-7.15a89.22,89.22,0,0,1,16.65-41.18L143,260.51c10-9.14,19-17.24,31-31l42.33,18.63a109.76,109.76,0,0,1,34.4-13.46l14.65-43.1c13.8.28,29.8.57,43.59.86,5.86,16.84,9.86,27.58,15.89,41.38h0c17.41,4.62,29.45,9.45,43.49,17.84l31.51-23,35.87,31L411,299c10.51,15.42,15.69,27,19.44,39.16l39.19,10.29,1.53,38.64-40.2,14A97.72,97.72,0,0,1,413.42,445l20.91,37.94-34.49,33.63L364.5,495a109.11,109.11,0,0,1-40.77,15.79l-11.82,39.39H265.36q-6-19.62-12.08-39.22a96.36,96.36,0,0,1-39-14.89" transform="translate(-104.16 -191.55)"/><path class="cls-1" d="M141,442.35" transform="translate(-104.16 -191.55)"/><path class="cls-1" d="M217,510" transform="translate(-104.16 -191.55)"/><path class="cls-1" d="M448.61,442.35" transform="translate(-104.16 -191.55)"/></g><g id="my_globe1"><circle class="cls-2" cx="180.26" cy="181.14" r="103.72"/><polyline class="cls-1" points="116.4 195.6 116.4 195.6 116.4 195.6 116.34 195.6"/><path d="M334.94,443.42c-2.92-14.89-1-20.47,1.56-22.69a11.3,11.3,0,0,0,2.74-3.13,11.14,11.14,0,0,0,.79-9.79c-1.21-2.64-2.69-2.24-3.53-4.69-1.19-3.52,1.26-6.11,0-7.44-.87-.92-2.47-.11-6.65.79a50.44,50.44,0,0,1-12.91,1.17,17.36,17.36,0,0,1-5.48-.78c-4-1.51-8.15-5.52-8.61-10.18-.32-3.31,1.46-4.51.78-9-.41-2.79-1.15-2.6-1.17-4.3-.07-5.37,7.26-5.76,9-12.52.64-2.49.55-6,3-7.71a5.15,5.15,0,0,1,.88-.51c2-.89,3.53.13,6.66,0a16.06,16.06,0,0,0,1.84-.2c5.95-.85,7.47-3.3,9.89-2.54s1.51,3.28,4.31,4.31c1.93.7,4.14.16,5.87,1.56a5.48,5.48,0,0,1,.81.82c1,1.36.66,2.54,1.15,2.7.71.24,2.65-1.91,3.62-4.36.24-.61.34-1,.68-1.12.9-.23,4.43,3.09,6.39,4.25,2.11,1.25,3.86.65,5-2.29.92-2.45-1.38-2.64-.79-7.43.42-3.36-10-.1-10.56-.79-.3-.34,1.74,0,0,0-.19,0-.69-1.09-.71-1.14-.12-.33,1.67-1.28,1.68-1.5a5.48,5.48,0,0,0-1.36-3.23c-.52-.39.2,4.45-2.55,4.41-.7,0-2.5-4-2.71-4.31-3.55-4.69-5.09-8-6.68-5.08,5.44,5.12,7.17,13.22,5.29,12-2.94-1.86-5.68.88-5.87-3.13-.24-5-3.38-6.39-5.87-7.05-2.1-.55-4.69.93-5.87,2.74-1.55,2.37,0,4.2-1.18,6.26-1.91,3.28-9.49,4.88-12.52,1.18-2.15-2.64-1.79-9.67.78-9,5,1.28,5,1.28,7.44-.39,1.55-1.08,2.27-3.44,1.56-4.31-1-1.2-4.08,1.07-5.87-.39a3.63,3.63,0,0,1-.39-4.7c1.14-1.15,2.84.33,5.09-.39,3.59-1.14,8-10.85,8-10.85,3.93.06,6.51,3.76,8.42,1.46,1.68-2-1.14-5.51.78-7.82,1.63-2,5.47-1.61,5.48-1.57S336.41,312.7,333,310a6.17,6.17,0,0,1-.7-.66c-2.22-2.38-2.28-5.94-2-6,.43-.1,2.93,10.42,0,12.87,0,0,3.61,2.1-1.78,2.49l-2.54-2.06c.7-4.09.61-5,.39-5.09-.59-.16.38,4.6-2.76,5.34-2.28.53-3.64.79-3.7-1.32s-.48-3.56,1-6.76c1.94-4.24-2.24-7.61,0-11.74a6.82,6.82,0,0,1,3.91-3.13c2.56-.62,5.17.89,5.09,1.18s-3.82-.51-11.35-2c-6.87-1.32-7.9-1.7-9-2.74-2.58-2.44-2.43-5.6-4.3-5.87s-3.32,3.19-4.7,2.74-2.1-4.78-.39-6.26c1.56-1.35,3.64,1,7.44,0,3.23-.81,3.58-2.93,5.87-2.74,2.53.22,2.82,2.88,5.48,3.13,2.22.21,2.47-1.62,5.47-1.95,2.05-.23,2.54.55,6.66,1.17,2.27.34,3.92.2,4.3.39,14.34,7.27,22.8,15.33,30.91,25,11.28,13.51,16.07,27.78,19.57,39.53a168.75,168.75,0,0,1,3.91,30.13c0,.77-.43,4.26-1.17,4.3-1.23.07-3-9.19-3.13-9.78,0-.17-.16-.83-.35-1.74-.1-.5-.47-2.34-.75-3.55-.78-3.31-3.23-7.92-6.55-6.46-.51.23-2.34-8.5-7-8.11,0,0,8.61,14.09,12.41,13.53,2.06-.3-7,18.59-8.5,16.6-2.11-2.79-4.69-7.83-10.17-19.67-1.25-2.69-1.59-4.43-2.15-.38-.27,1.94,1.24,2.38,3.52,6.65,0,0,1,1.85,4.31,12.91h0c.71,1.31,1.86,2.88,3.52,3.13,2.95.44,5-3.74,6.26-3.13,1.56.74,1.22,8.28-2.74,11-1.39.94-2.68.91-3.52,2.35-1,1.75.16,3.07-.78,4.69-1.16,2-3.64,1.17-4.7,2.74-1.57,2.31-.29,4.17-.59,8.71-.21,3.19.72,4.59-7.63,14.77-1,1.22-1.91,2.33-3.13,3.91-3.42,4.45-4,5.74-5.87,7.83a27.39,27.39,0,0,1-6.26,5.08" transform="translate(-104.16 -191.55)"/><path d="M218.25,385.09a40.19,40.19,0,0,1-2.21-3.66c-.87-1.47-3.24-1.28-3.7-1.72s-1.71-1.45-2-1.7l-.56-.43c-2.11-1.61-3.16-2.42-3.29-3-.29-1.19.67,1.11,0,0-.07-.11-2.1.52-2.17.46-.81-.72-.42-2.73-2.13-2.81-2.4-.1-4.52-4.21-5.09-7-.37-1.85-.63-5.9-.65-6.29s1.82-9.75,1.82-9.75c-.06-1.18-3.79,8.32-3.79,8.21-.11-3.08.27-9.78.27-9.78-1.1-4.18,1.48-5.76,1.18-7-1.72-7.35,3.18-11,7.82-23.09,3.52-9.16.41-9.86,5.87-16,6.61-7.49,11.35-9.79,14.87-13.7,1.25-1.39,2.45,3,3.91,2.74.44-.08.9-.38,2.74-3.52s1.94-3.74,2.74-3.91c0,0,.58-.13,3.73,1.84l5,.94,4.57-.83a9.75,9.75,0,0,0-3.13-3.52l-.07-.05a6.26,6.26,0,0,0-5-.73c0,3.65,7.3.22,11,.39A19.16,19.16,0,0,0,255,278c1.65-1.43,2-2.27,3.52-3.13s2.59-.87,5.09-1.18c6.2-.75,8.81-1.71,9-1.17s-1.6,1.51-3.43,2.59c-2.62,1.55-4.81,2.44-4.79,2.5s4-1.62,7.4-2.37l1.36-.28c.3-.05,1.89-.34,3.77-.48,3.9-.3,9.5,0,12.91,0h2c1.76-.07,2-.26,2.34,0,.95.76-.21,3.6-.78,4.3a6,6,0,0,1-1.12,1l0,0c-.9.61-2,.61-2.37.9-.83.72,2.13,4.32,3.13,9,.51,2.38.86,4,0,5.48-1.63,2.71-5.4,1-10.57,3.91a23,23,0,0,0-5.87,5.09c-2.72,3.17-3.18,5.26-5.47,5.87a4.93,4.93,0,0,1-4.7-1.18c-1.75-1.92-.75-5.4.39-9.39.54-1.87.79-2.06,2-5.87a30.89,30.89,0,0,0,1.17-5.09c.29-2-4.57-5.64-5.08-5.87-1.2-.52,1.76-4.44-.4-5.08-1.3-.39-6.32,4.85-8.05,4-2-1-2.06,7-2.12,9.31,0,1,.68,1.32,3.13,4.7,2.07,2.85,2.05,3.26,2,3.52-.5,1.43-.66,1.58-4.65,3.55,0,0-2.28,4.75-3.3,4.52-2.7-.6,2.23-3.25,1.39-1.19s-1.06,1.1-1.39,1.19l-3.94.77,3.74-.72h0c-2.55.46-2.55.33-2.55.46,0,.44,1.93.75,3.26,3.55.77,1.61-1.18,2.89-.39,5.09s3.33,2.1,3.91,4.3c.46,1.71-5.11,4.16-3.08,4.47,1.71.25,6.34,4.47,5.82,5.7s-5,.64-6.65.4a12.67,12.67,0,0,1-2.88-.75c-1.21-.47-3.37-.64-2.41-1.15,5-2.64,3.68-4.46,3.73-4.36s-8.62,3.28-8.22,5.86c.31,2,5.91,2.19,5.87,3.53,0,1.1-3.84,2.16-7.05,2.34-2.74.16-4.58-3.2-5.08-1.56-1.57,5.09-3.38,3.95-5.48,6.65-2.85,3.66-2.17,4.39-4.7,7-2,2.11-3,2.25-3.52,3.92a15.11,15.11,0,0,0-.2,5.4.77.77,0,0,1-.79.87h-1c-.63-1.58-.09-5.21-3.14-7h0c-1,.76-9.19,2.26-10,4.77-.54,1.71-2.79-.3-2.53,3.44.32,4.53,2.15,8.9,2.79,9,7,1.47,6.88-7.49,8.87-2.95.63,1.44-1.5,4.5-2.39,6.81-.7,1.82,3.18-.34,2.91,2.05-.4,3.74.46,4.57,2.3,6.19a8.42,8.42,0,0,0,4.31,2c3.44.45,4.35-1.9,7.82-2,3.75-.06,6.79,2.62,7.83,3.52,2.36,2.08,2.18,3.34,5.08,5.48a16,16,0,0,0,4.31,2.35c3.22,1.14,4.06.21,5.48,1.17,2.67,1.84.61,5.85,3.13,8.22,1.64,1.55,3.27.57,8.61,1.18,5,.57,11.25,3,12.91,5.47.72,1.09,2,3.92-3.91,10.18-5.19,5.53,3.52,3.13-3.53,9.78-2.54,2.41-5.38-.17-7.82,2-2.64,2.3-.4,5.51-3.52,8.61-.81.79-3.19,3.16-6,3-.52,0-1.24-.16-1.4.15-.38.72,3.09,2.56,2.74,3.91-.3,1.15-3,.45-5.09,2.35-1.58,1.43-2.39,4-1.56,5.08,1,1.26,3.52,0,4.3,1.18s1.22,2.09,2.17,3.46c.41.6,0,0,1.28.09a3.35,3.35,0,0,1,2.81,1.54c-.06-.44-8.82,1.83-12.52-2.74-5.46-6.77-5.33-9.06-6.65-12.53-3.13-8.21-1.36-15.59-5.09-20.34-.61-.79,0,0-1.95-3.92-3.25-6.49-4.82-3.45-5.61-4.61a50,50,0,0,1-5-9.47c-1.48-4.15-2.22-6.28-1.95-9a13.38,13.38,0,0,1,2.34-6.26" transform="translate(-104.16 -191.55)"/><path d="M361.5,427.62c-.33-5.72,5.35-11.35,6.91-13.81l.82-1.29.1-.16s3.4,2.5,3.52,5.09c0,1-.48,1.34-2.35,4.3l-3.13,5.48c-2.21,3.87-3.31,5.8-3.34,5.93s-.06.31-.18.33C363.36,433.59,361.67,430.5,361.5,427.62Z" transform="translate(-104.16 -191.55)"/><path d="M222.77,369.79c3.64,2.48,19.57,3.52,12.26,5.74-3.25,1,1-2.71,1.05-2.94.28-.72-3-3.6-5.74-3.26a9.48,9.48,0,0,1-4.4-.35c-1.76-.53-1.28-3-3.92-5.74a7.54,7.54,0,0,0-3.91-2.35c-1.61-.33-3.07,1.43-3.27,2.17-.14.54,0,0,4,2,.56,1,1.39,2.16,2.53,2.3,1.41.16,2.78-1.21,3-1" transform="translate(-104.16 -191.55)"/><path d="M224.15,371.42c1.27-.06-7.26-2.46-.23,3.1" transform="translate(-104.16 -191.55)"/><path d="M291.59,301.61c-1.28,1.44-.86,4.5.79,5.74.87.65,2.15.53,4.69.26,3-.32,4.49-.48,5.22-1.57a3.68,3.68,0,0,0-.26-4.17c-.83-1-2.39-1-5.48-1C293.73,300.8,292.31,300.81,291.59,301.61Z" transform="translate(-104.16 -191.55)"/><path d="M315.67,328.92c1.62,1.35,6.16-.61,6.26-2.35,0-.71-.68-.88-3.39-3.91a14.49,14.49,0,0,1-1.83-2.35,10.16,10.16,0,0,1-1.26-3.15c-.4-2,.15-2.81-.3-3.11-1.11-.75-5.9,3.25-5.22,5,.43,1.07,4.82,2.53,4.69,2.65-2.58,2.38-1.61-.72-1.7-.64l-.05,0a1.27,1.27,0,0,1-.65.21c-3.31.39-2.7.64-3.59,1.65-2.63,2.95-.17,4.16.86,5.15.88.85,1.1,0,2.27-.71,2.46-1.42.94-4.92,1.38-4.8S314,327.56,315.67,328.92Z" transform="translate(-104.16 -191.55)"/><path d="M321.15,439.09c-1,.59-3-.43-3.65-1.83-.55-1.2.24-1.83-.26-2.87-.85-1.75-.18-.94-1.28-2.67-.91-1.43-2.87-1.5-2.63-4.63,0-.46,2.22-1.35,2.28-1.39l.11-.06h0l.21-.11c1.78-1,2.67-1.51,3.13-1.3.75.34-.51,1.47-.5,1.82s-1.52,1.94-1.55,2.09c-.32,1.74-1.36,1-1.35,1.83,0,.55,1.83.44,3.66,1.82a6.55,6.55,0,0,1,2.34,3.39C321.94,436.15,322.27,438.45,321.15,439.09Z" transform="translate(-104.16 -191.55)"/><path class="cls-2" d="M248.81,309.8c-1.38.74-3.55.53-4.05-.19s.55-2-.22-2.88a2.21,2.21,0,0,0-.34-.31,3.33,3.33,0,0,0-1.55-.62,4,4,0,0,0-.58,0,5.13,5.13,0,0,0-3.6,2.3c-1.34,2.06.13,3.11-1.12,4.23s-3,.82-3.6,2.11a4.37,4.37,0,0,0-.19.54c-.34,1.18,0,1.6-.26,2.15-.33.75-.3,4.07-2.47,1.15-.58-.77-2.78,2-2.79,1.18,0-1.82,5.26-2.33,3.46-6.94-.52-1.33-2.83-1.4-3.37-3.07-.41-1.28.72-2.56,2-4,1.54-1.74,3.94-3.5,4.72-3.07.17.09.22.28.32.67a3.49,3.49,0,0,1-.21,2c-.1.29-.14.32-.11.38.37.64,5.76-.29,6.07-1.92.18-.95-1.48-1.7-1.12-2.3s2.27.07,3.59-1a3.17,3.17,0,0,0,.89-1.18,3.74,3.74,0,0,0,.3-1.69c0-.68-.2-.8-.06-1,.43-.54,2.86-.33,3.59.77.93,1.39-1.28,3.62-1.48,3.81a14.16,14.16,0,0,1-1.44,1.18c-1.53,1.16-2,1.19-2,1.54-.2,1.21,5.41,2.68,8,3.56" transform="translate(-104.16 -191.55)"/><path class="cls-1" d="M382.74,383c.24-.21,2.48-2.16,3.39-1.57s.24,3.16-.52,4.7a8,8,0,0,1-.77,1.24,7.67,7.67,0,0,1-2.26,2.09l-.1.06c-.62.56.67,3.21,1,3.13S383.49,388.19,382.74,383Z" transform="translate(-104.16 -191.55)"/><path class="cls-2" d="M361.49,337.43c1,0,.14,2.51,0,3-.24.68-1.65.55-3.91.78-4.41.44-5.24,1.54-6.26.78s.4-2.07-2-4.57c-3-3.17,1.51-4.48,2-4.56.86-.13,1.78,4.77,3.13,4.7.67,0,.12-2,.45-2.83.73-1.74,1.55-3.31,1.9-2.13C357.7,335.78,358.74,337.43,361.49,337.43Z" transform="translate(-104.16 -191.55)"/><path class="cls-2" d="M367.09,328.22c-.81.31.52,5.55.78,6.52.2.76,2.62,1,2.88,1.69.47,1.37,1.93,8.22,2.1,8.22.49,0,2.85-1.08,1.28-2.39C371.93,340.43,367.68,328,367.09,328.22Z" transform="translate(-104.16 -191.55)"/><path class="cls-3" d="M305.24,194.24" transform="translate(-104.16 -191.55)"/></g><g id="my_text1"><text class="cls-4" transform="translate(29.64 242.89) scale(0.98 1)">C<tspan class="cls-5" x="110.29" y="0">T</tspan><tspan class="cls-6" x="188.79" y="0">A</tspan></text></g></svg>